<svg xmlns="http://www.w3.org/2000/svg" viewBox="0 0 510.82 401.19"><defs><style>.cls-1{fill:red;}.cls-1,.cls-2,.cls-3,.cls-4,.cls-5,.cls-6,.cls-7,.cls-8{stroke:#000;stroke-miterlimit:10;stroke-width:0.5px;}.cls-2{fill:#fff;}.cls-3{fill:#ddd;opacity:0.6;}.cls-4{fill:#aaa;opacity:0.7;}.cls-5{fill:#ffcfcb;}.cls-6,.cls-7{fill:#fe284d;}.cls-6{opacity:0.8;}.cls-8{font-size:21px;font-family:BIZ-UDPMincho-Medium, BIZ UDPMincho;font-weight:500;}</style></defs><g id="レイヤー_2" data-name="レイヤー 2"><g id="レイヤー_1-2" data-name="レイヤー 1"><rect class="cls-1" x="457.16" y="0.25" width="53.41" height="42.73"/><path class="cls-2" d="M212.81,213.89l-186.48,13c-7.2-103,70.45-192.32,173.44-199.52,4.12-.29,8.91-.45,13-.45Z"/><rect class="cls-1" x="457.16" y="64.34" width="53.41" height="42.73"/><path class="cls-3" d="M212.81,213.89,49.31,304.52c-14-25.28-21-48.75-23-77.59Z"/><rect class="cls-1" x="457.16" y="128.44" width="53.41" height="42.73"/><path class="cls-4" d="M212.81,213.89,102.93,365.13c-23.39-17-39.6-35.32-53.62-60.61Z"/><rect class="cls-1" x="457.16" y="192.53" width="53.41" height="42.73"/><path class="cls-5" d="M212.81,213.89l26,185.12c-49.08,6.9-95.81-4.75-135.9-33.88Z"/><rect class="cls-1" x="457.16" y="256.62" width="53.41" height="42.73"/><path class="cls-6" d="M212.81,213.89H399.75c0,95-66.86,171.91-160.92,185.12Z"/><rect class="cls-1" x="457.16" y="320.72" width="53.41" height="42.73"/><path class="cls-7" d="M212.81,213.89V27c103.25,0,186.94,83.69,186.94,186.93H212.81Z"/><text class="cls-8" transform="translate(86.25 128.13)">その他 25%</text><text class="cls-8" transform="translate(0.25 271.22)">留学 7%</text><text class="cls-8" transform="translate(34.58 345.1)">航空 7%</text><text class="cls-8" transform="translate(140.05 347.18)">金融 12% </text><text class="cls-8" transform="translate(269.41 292.1)">観光 23%</text><text class="cls-8" transform="translate(241.25 129.59)">サービス 26%</text></g></g></svg>